<mxfile host="app.diagrams.net" modified="2023-05-25T23:40:56.482Z" agent="Mozilla/5.0 (Windows NT 10.0; Win64; x64; rv:109.0) Gecko/20100101 Firefox/113.0" etag="nhUDQ-n6T5EKP7KSCsX6" version="21.2.3" type="device">
  <diagram name="Seite-1" id="ObMnVh85HuGpCZ_jbzqC">
    <mxGraphModel dx="1674" dy="774" grid="1" gridSize="10" guides="1" tooltips="1" connect="1" arrows="1" fold="1" page="1" pageScale="1" pageWidth="827" pageHeight="1169" math="0" shadow="0">
      <root>
        <mxCell id="0" />
        <mxCell id="1" parent="0" />
        <mxCell id="NuPrWbKFmI7vso4aYNDR-14" style="edgeStyle=orthogonalEdgeStyle;rounded=0;orthogonalLoop=1;jettySize=auto;html=1;entryX=0.5;entryY=0;entryDx=0;entryDy=0;" parent="1" source="NuPrWbKFmI7vso4aYNDR-2" target="NuPrWbKFmI7vso4aYNDR-4" edge="1">
          <mxGeometry relative="1" as="geometry" />
        </mxCell>
        <mxCell id="NuPrWbKFmI7vso4aYNDR-15" style="edgeStyle=orthogonalEdgeStyle;rounded=0;orthogonalLoop=1;jettySize=auto;html=1;exitX=0.5;exitY=1;exitDx=0;exitDy=0;entryX=0.5;entryY=0;entryDx=0;entryDy=0;" parent="1" source="NuPrWbKFmI7vso4aYNDR-2" target="NuPrWbKFmI7vso4aYNDR-5" edge="1">
          <mxGeometry relative="1" as="geometry" />
        </mxCell>
        <mxCell id="NuPrWbKFmI7vso4aYNDR-16" style="edgeStyle=orthogonalEdgeStyle;rounded=0;orthogonalLoop=1;jettySize=auto;html=1;exitX=1;exitY=0.5;exitDx=0;exitDy=0;entryX=0.5;entryY=0;entryDx=0;entryDy=0;" parent="1" source="NuPrWbKFmI7vso4aYNDR-2" target="NuPrWbKFmI7vso4aYNDR-6" edge="1">
          <mxGeometry relative="1" as="geometry" />
        </mxCell>
        <mxCell id="NuPrWbKFmI7vso4aYNDR-2" value="&lt;b&gt;Dataset Artificial (AI)&lt;/b&gt;" style="rounded=0;whiteSpace=wrap;html=1;fillColor=#99CCFF;" parent="1" vertex="1">
          <mxGeometry x="430" y="170" width="120" height="60" as="geometry" />
        </mxCell>
        <mxCell id="NuPrWbKFmI7vso4aYNDR-17" style="edgeStyle=orthogonalEdgeStyle;rounded=0;orthogonalLoop=1;jettySize=auto;html=1;exitX=0;exitY=0.5;exitDx=0;exitDy=0;entryX=0.5;entryY=0;entryDx=0;entryDy=0;" parent="1" source="NuPrWbKFmI7vso4aYNDR-3" target="NuPrWbKFmI7vso4aYNDR-7" edge="1">
          <mxGeometry relative="1" as="geometry" />
        </mxCell>
        <mxCell id="NuPrWbKFmI7vso4aYNDR-18" style="edgeStyle=orthogonalEdgeStyle;rounded=0;orthogonalLoop=1;jettySize=auto;html=1;exitX=1;exitY=0.5;exitDx=0;exitDy=0;entryX=0.5;entryY=0;entryDx=0;entryDy=0;" parent="1" source="NuPrWbKFmI7vso4aYNDR-3" target="NuPrWbKFmI7vso4aYNDR-8" edge="1">
          <mxGeometry relative="1" as="geometry" />
        </mxCell>
        <mxCell id="sY9tv89bA_Qjg63RHlXv-11" style="edgeStyle=orthogonalEdgeStyle;rounded=0;orthogonalLoop=1;jettySize=auto;html=1;exitX=1;exitY=0.5;exitDx=0;exitDy=0;entryX=0.5;entryY=0;entryDx=0;entryDy=0;" edge="1" parent="1" source="NuPrWbKFmI7vso4aYNDR-3" target="sY9tv89bA_Qjg63RHlXv-28">
          <mxGeometry relative="1" as="geometry">
            <mxPoint x="1150" y="270" as="targetPoint" />
          </mxGeometry>
        </mxCell>
        <mxCell id="NuPrWbKFmI7vso4aYNDR-3" value="&lt;b&gt;Dataset Real (Real)&lt;/b&gt;" style="rounded=0;whiteSpace=wrap;html=1;fillColor=#FFCCCC;" parent="1" vertex="1">
          <mxGeometry x="820" y="170" width="120" height="60" as="geometry" />
        </mxCell>
        <mxCell id="NuPrWbKFmI7vso4aYNDR-32" style="edgeStyle=orthogonalEdgeStyle;rounded=0;orthogonalLoop=1;jettySize=auto;html=1;exitX=0.5;exitY=1;exitDx=0;exitDy=0;entryX=0.5;entryY=0;entryDx=0;entryDy=0;" parent="1" source="NuPrWbKFmI7vso4aYNDR-4" target="NuPrWbKFmI7vso4aYNDR-31" edge="1">
          <mxGeometry relative="1" as="geometry" />
        </mxCell>
        <mxCell id="sY9tv89bA_Qjg63RHlXv-6" style="edgeStyle=orthogonalEdgeStyle;rounded=0;orthogonalLoop=1;jettySize=auto;html=1;exitX=0.5;exitY=1;exitDx=0;exitDy=0;entryX=1;entryY=0.5;entryDx=0;entryDy=0;" edge="1" parent="1" source="NuPrWbKFmI7vso4aYNDR-4" target="NuPrWbKFmI7vso4aYNDR-10">
          <mxGeometry relative="1" as="geometry" />
        </mxCell>
        <mxCell id="sY9tv89bA_Qjg63RHlXv-8" style="edgeStyle=orthogonalEdgeStyle;rounded=0;orthogonalLoop=1;jettySize=auto;html=1;exitX=0;exitY=0.5;exitDx=0;exitDy=0;entryX=1;entryY=0.5;entryDx=0;entryDy=0;" edge="1" parent="1" source="NuPrWbKFmI7vso4aYNDR-4" target="NuPrWbKFmI7vso4aYNDR-10">
          <mxGeometry relative="1" as="geometry" />
        </mxCell>
        <mxCell id="NuPrWbKFmI7vso4aYNDR-4" value="&lt;b&gt;AI Training&lt;/b&gt;" style="rounded=0;whiteSpace=wrap;html=1;fillColor=#99CCFF;" parent="1" vertex="1">
          <mxGeometry x="280" y="280" width="120" height="60" as="geometry" />
        </mxCell>
        <mxCell id="NuPrWbKFmI7vso4aYNDR-30" style="edgeStyle=orthogonalEdgeStyle;rounded=0;orthogonalLoop=1;jettySize=auto;html=1;exitX=0.5;exitY=1;exitDx=0;exitDy=0;entryX=0.5;entryY=0;entryDx=0;entryDy=0;" parent="1" source="NuPrWbKFmI7vso4aYNDR-5" target="NuPrWbKFmI7vso4aYNDR-22" edge="1">
          <mxGeometry relative="1" as="geometry" />
        </mxCell>
        <mxCell id="NuPrWbKFmI7vso4aYNDR-5" value="&lt;b&gt;AI Validation&lt;/b&gt;" style="rounded=0;whiteSpace=wrap;html=1;fillColor=#99CCFF;" parent="1" vertex="1">
          <mxGeometry x="430" y="280" width="120" height="60" as="geometry" />
        </mxCell>
        <mxCell id="NuPrWbKFmI7vso4aYNDR-37" style="edgeStyle=orthogonalEdgeStyle;rounded=0;orthogonalLoop=1;jettySize=auto;html=1;exitX=0.5;exitY=1;exitDx=0;exitDy=0;entryX=0;entryY=0.5;entryDx=0;entryDy=0;" parent="1" source="NuPrWbKFmI7vso4aYNDR-6" target="NuPrWbKFmI7vso4aYNDR-36" edge="1">
          <mxGeometry relative="1" as="geometry" />
        </mxCell>
        <mxCell id="NuPrWbKFmI7vso4aYNDR-6" value="&lt;b&gt;AI Test&lt;/b&gt;" style="rounded=0;whiteSpace=wrap;html=1;fillColor=#99CCFF;" parent="1" vertex="1">
          <mxGeometry x="570" y="280" width="120" height="60" as="geometry" />
        </mxCell>
        <mxCell id="NuPrWbKFmI7vso4aYNDR-24" style="edgeStyle=orthogonalEdgeStyle;rounded=0;orthogonalLoop=1;jettySize=auto;html=1;exitX=0.5;exitY=1;exitDx=0;exitDy=0;entryX=1;entryY=0.5;entryDx=0;entryDy=0;" parent="1" source="NuPrWbKFmI7vso4aYNDR-7" target="NuPrWbKFmI7vso4aYNDR-22" edge="1">
          <mxGeometry relative="1" as="geometry" />
        </mxCell>
        <mxCell id="NuPrWbKFmI7vso4aYNDR-7" value="&lt;b&gt;Real Training&lt;/b&gt;" style="rounded=0;whiteSpace=wrap;html=1;fillColor=#FFCCCC;" parent="1" vertex="1">
          <mxGeometry x="740" y="280" width="120" height="60" as="geometry" />
        </mxCell>
        <mxCell id="NuPrWbKFmI7vso4aYNDR-38" style="edgeStyle=orthogonalEdgeStyle;rounded=0;orthogonalLoop=1;jettySize=auto;html=1;exitX=0.5;exitY=1;exitDx=0;exitDy=0;entryX=1;entryY=0.5;entryDx=0;entryDy=0;" parent="1" source="NuPrWbKFmI7vso4aYNDR-8" target="NuPrWbKFmI7vso4aYNDR-36" edge="1">
          <mxGeometry relative="1" as="geometry" />
        </mxCell>
        <mxCell id="NuPrWbKFmI7vso4aYNDR-8" value="&lt;b&gt;Real Test&lt;/b&gt;" style="rounded=0;whiteSpace=wrap;html=1;fillColor=#FFCCCC;" parent="1" vertex="1">
          <mxGeometry x="900" y="280" width="120" height="60" as="geometry" />
        </mxCell>
        <mxCell id="NuPrWbKFmI7vso4aYNDR-20" style="edgeStyle=orthogonalEdgeStyle;rounded=0;orthogonalLoop=1;jettySize=auto;html=1;exitX=0.5;exitY=1;exitDx=0;exitDy=0;entryX=0.5;entryY=0;entryDx=0;entryDy=0;" parent="1" source="NuPrWbKFmI7vso4aYNDR-9" target="NuPrWbKFmI7vso4aYNDR-10" edge="1">
          <mxGeometry relative="1" as="geometry" />
        </mxCell>
        <mxCell id="NuPrWbKFmI7vso4aYNDR-9" value="&lt;b&gt;Parameters&lt;/b&gt;" style="rounded=0;whiteSpace=wrap;html=1;fillColor=#FFFFCC;" parent="1" vertex="1">
          <mxGeometry x="50" y="170" width="120" height="60" as="geometry" />
        </mxCell>
        <mxCell id="NuPrWbKFmI7vso4aYNDR-48" style="edgeStyle=orthogonalEdgeStyle;rounded=0;orthogonalLoop=1;jettySize=auto;html=1;exitX=0.5;exitY=1;exitDx=0;exitDy=0;entryX=0.5;entryY=0;entryDx=0;entryDy=0;" parent="1" source="NuPrWbKFmI7vso4aYNDR-10" target="NuPrWbKFmI7vso4aYNDR-46" edge="1">
          <mxGeometry relative="1" as="geometry" />
        </mxCell>
        <mxCell id="NuPrWbKFmI7vso4aYNDR-10" value="&lt;b&gt;TPE Grid Search&lt;/b&gt;" style="rounded=0;whiteSpace=wrap;html=1;strokeColor=#FFFFCC;fillColor=#CCCCCC;" parent="1" vertex="1">
          <mxGeometry x="50" y="370" width="120" height="60" as="geometry" />
        </mxCell>
        <mxCell id="NuPrWbKFmI7vso4aYNDR-27" style="edgeStyle=orthogonalEdgeStyle;rounded=0;orthogonalLoop=1;jettySize=auto;html=1;exitX=1;exitY=0.5;exitDx=0;exitDy=0;entryX=0;entryY=0.5;entryDx=0;entryDy=0;" parent="1" source="NuPrWbKFmI7vso4aYNDR-11" target="NuPrWbKFmI7vso4aYNDR-12" edge="1">
          <mxGeometry relative="1" as="geometry" />
        </mxCell>
        <mxCell id="NuPrWbKFmI7vso4aYNDR-11" value="&lt;b&gt;Best parameters&lt;/b&gt;" style="rounded=0;whiteSpace=wrap;html=1;fillColor=#FFFFCC;" parent="1" vertex="1">
          <mxGeometry x="50" y="534" width="120" height="60" as="geometry" />
        </mxCell>
        <mxCell id="NuPrWbKFmI7vso4aYNDR-40" style="edgeStyle=orthogonalEdgeStyle;rounded=0;orthogonalLoop=1;jettySize=auto;html=1;exitX=0.5;exitY=1;exitDx=0;exitDy=0;entryX=0;entryY=0.5;entryDx=0;entryDy=0;" parent="1" source="NuPrWbKFmI7vso4aYNDR-12" target="NuPrWbKFmI7vso4aYNDR-13" edge="1">
          <mxGeometry relative="1" as="geometry" />
        </mxCell>
        <mxCell id="NuPrWbKFmI7vso4aYNDR-12" value="&lt;b&gt;Retrained model&lt;/b&gt;" style="rounded=0;whiteSpace=wrap;html=1;fillColor=#FFFFCC;" parent="1" vertex="1">
          <mxGeometry x="280" y="534" width="120" height="60" as="geometry" />
        </mxCell>
        <mxCell id="NuPrWbKFmI7vso4aYNDR-13" value="&lt;b&gt;Final evaluation&lt;/b&gt;" style="rounded=0;whiteSpace=wrap;html=1;fillColor=#FF99FF;" parent="1" vertex="1">
          <mxGeometry x="570" y="680" width="120" height="60" as="geometry" />
        </mxCell>
        <mxCell id="sY9tv89bA_Qjg63RHlXv-7" style="edgeStyle=orthogonalEdgeStyle;rounded=0;orthogonalLoop=1;jettySize=auto;html=1;exitX=0;exitY=0.5;exitDx=0;exitDy=0;entryX=1;entryY=0.5;entryDx=0;entryDy=0;" edge="1" parent="1" source="NuPrWbKFmI7vso4aYNDR-22" target="NuPrWbKFmI7vso4aYNDR-10">
          <mxGeometry relative="1" as="geometry" />
        </mxCell>
        <mxCell id="sY9tv89bA_Qjg63RHlXv-9" style="edgeStyle=orthogonalEdgeStyle;rounded=0;orthogonalLoop=1;jettySize=auto;html=1;exitX=0.5;exitY=1;exitDx=0;exitDy=0;entryX=1;entryY=0.5;entryDx=0;entryDy=0;" edge="1" parent="1" source="NuPrWbKFmI7vso4aYNDR-22" target="NuPrWbKFmI7vso4aYNDR-31">
          <mxGeometry relative="1" as="geometry" />
        </mxCell>
        <mxCell id="NuPrWbKFmI7vso4aYNDR-22" value="&lt;b&gt;Validation&lt;/b&gt;" style="rounded=0;whiteSpace=wrap;html=1;fillColor=#CCFFCC;" parent="1" vertex="1">
          <mxGeometry x="430" y="370" width="120" height="60" as="geometry" />
        </mxCell>
        <mxCell id="NuPrWbKFmI7vso4aYNDR-35" style="edgeStyle=orthogonalEdgeStyle;rounded=0;orthogonalLoop=1;jettySize=auto;html=1;exitX=0.5;exitY=1;exitDx=0;exitDy=0;entryX=0.5;entryY=0;entryDx=0;entryDy=0;" parent="1" source="NuPrWbKFmI7vso4aYNDR-31" target="NuPrWbKFmI7vso4aYNDR-12" edge="1">
          <mxGeometry relative="1" as="geometry" />
        </mxCell>
        <mxCell id="NuPrWbKFmI7vso4aYNDR-31" value="&lt;b&gt;Training Data&lt;br&gt;&lt;/b&gt;" style="rounded=0;whiteSpace=wrap;html=1;fillColor=#CCFFCC;" parent="1" vertex="1">
          <mxGeometry x="280" y="450" width="120" height="60" as="geometry" />
        </mxCell>
        <mxCell id="sY9tv89bA_Qjg63RHlXv-15" style="edgeStyle=orthogonalEdgeStyle;rounded=0;orthogonalLoop=1;jettySize=auto;html=1;exitX=0.5;exitY=1;exitDx=0;exitDy=0;entryX=1;entryY=0.5;entryDx=0;entryDy=0;" edge="1" parent="1" source="NuPrWbKFmI7vso4aYNDR-36" target="NuPrWbKFmI7vso4aYNDR-12">
          <mxGeometry relative="1" as="geometry" />
        </mxCell>
        <mxCell id="NuPrWbKFmI7vso4aYNDR-36" value="&lt;b&gt;Test Data&lt;/b&gt;" style="rounded=0;whiteSpace=wrap;html=1;fillColor=#CCFFCC;" parent="1" vertex="1">
          <mxGeometry x="710" y="450" width="120" height="60" as="geometry" />
        </mxCell>
        <mxCell id="NuPrWbKFmI7vso4aYNDR-42" style="edgeStyle=orthogonalEdgeStyle;rounded=0;orthogonalLoop=1;jettySize=auto;html=1;exitX=0.5;exitY=0;exitDx=0;exitDy=0;entryX=1;entryY=0.5;entryDx=0;entryDy=0;" parent="1" source="NuPrWbKFmI7vso4aYNDR-9" target="NuPrWbKFmI7vso4aYNDR-9" edge="1">
          <mxGeometry relative="1" as="geometry" />
        </mxCell>
        <mxCell id="NuPrWbKFmI7vso4aYNDR-43" value="&lt;b&gt;&lt;font style=&quot;font-size: 14px;&quot;&gt;Padding / Resizing&lt;br&gt;&lt;/font&gt;&lt;/b&gt;" style="edgeLabel;html=1;align=center;verticalAlign=middle;resizable=0;points=[];" parent="NuPrWbKFmI7vso4aYNDR-42" vertex="1" connectable="0">
          <mxGeometry x="-0.4588" y="4" relative="1" as="geometry">
            <mxPoint as="offset" />
          </mxGeometry>
        </mxCell>
        <mxCell id="NuPrWbKFmI7vso4aYNDR-44" style="edgeStyle=orthogonalEdgeStyle;rounded=0;orthogonalLoop=1;jettySize=auto;html=1;exitX=0.5;exitY=0;exitDx=0;exitDy=0;entryX=1;entryY=0.5;entryDx=0;entryDy=0;" parent="1" source="NuPrWbKFmI7vso4aYNDR-2" target="NuPrWbKFmI7vso4aYNDR-2" edge="1">
          <mxGeometry relative="1" as="geometry" />
        </mxCell>
        <mxCell id="NuPrWbKFmI7vso4aYNDR-45" value="&lt;b&gt;&lt;font style=&quot;font-size: 14px;&quot;&gt;AI Uniform / AI Random&lt;br&gt;&lt;/font&gt;&lt;/b&gt;" style="edgeLabel;html=1;align=center;verticalAlign=middle;resizable=0;points=[];" parent="NuPrWbKFmI7vso4aYNDR-44" vertex="1" connectable="0">
          <mxGeometry x="-0.4118" y="2" relative="1" as="geometry">
            <mxPoint as="offset" />
          </mxGeometry>
        </mxCell>
        <mxCell id="NuPrWbKFmI7vso4aYNDR-47" style="edgeStyle=orthogonalEdgeStyle;rounded=0;orthogonalLoop=1;jettySize=auto;html=1;exitX=0.5;exitY=1;exitDx=0;exitDy=0;" parent="1" source="NuPrWbKFmI7vso4aYNDR-46" target="NuPrWbKFmI7vso4aYNDR-11" edge="1">
          <mxGeometry relative="1" as="geometry" />
        </mxCell>
        <mxCell id="NuPrWbKFmI7vso4aYNDR-46" value="&lt;b&gt;Find Best Epoch&lt;br&gt;&lt;/b&gt;" style="rounded=0;whiteSpace=wrap;html=1;strokeColor=#FFFFCC;fillColor=#CCCCCC;" parent="1" vertex="1">
          <mxGeometry x="50" y="450" width="120" height="60" as="geometry" />
        </mxCell>
        <mxCell id="sY9tv89bA_Qjg63RHlXv-29" value="" style="group" vertex="1" connectable="0" parent="1">
          <mxGeometry x="1050" y="260" width="196.83999999999992" height="420" as="geometry" />
        </mxCell>
        <mxCell id="sY9tv89bA_Qjg63RHlXv-28" value="" style="rounded=0;whiteSpace=wrap;html=1;strokeColor=#FFFFCC;fillColor=#CCCCCC;" vertex="1" parent="sY9tv89bA_Qjg63RHlXv-29">
          <mxGeometry x="10.00125" y="20" width="147.49875000000003" height="400" as="geometry" />
        </mxCell>
        <mxCell id="sY9tv89bA_Qjg63RHlXv-18" value="&lt;b&gt;Parameters&lt;/b&gt;" style="rounded=0;whiteSpace=wrap;html=1;fillColor=#FFFFCC;" vertex="1" parent="sY9tv89bA_Qjg63RHlXv-29">
          <mxGeometry x="26.842105263157894" y="64.75" width="107.36842105263158" height="52.5" as="geometry" />
        </mxCell>
        <mxCell id="sY9tv89bA_Qjg63RHlXv-20" value="&lt;b&gt;TPE Grid Search&lt;/b&gt;" style="rounded=0;whiteSpace=wrap;html=1;strokeColor=#FFFFCC;fillColor=#CCCCCC;" vertex="1" parent="sY9tv89bA_Qjg63RHlXv-29">
          <mxGeometry x="26.842105263157894" y="131.25" width="107.36842105263158" height="52.5" as="geometry" />
        </mxCell>
        <mxCell id="sY9tv89bA_Qjg63RHlXv-17" style="edgeStyle=orthogonalEdgeStyle;rounded=0;orthogonalLoop=1;jettySize=auto;html=1;exitX=0.5;exitY=1;exitDx=0;exitDy=0;entryX=0.5;entryY=0;entryDx=0;entryDy=0;" edge="1" parent="sY9tv89bA_Qjg63RHlXv-29" source="sY9tv89bA_Qjg63RHlXv-18" target="sY9tv89bA_Qjg63RHlXv-20">
          <mxGeometry relative="1" as="geometry" />
        </mxCell>
        <mxCell id="sY9tv89bA_Qjg63RHlXv-21" value="&lt;b&gt;Best parameters&lt;/b&gt;" style="rounded=0;whiteSpace=wrap;html=1;fillColor=#FFFFCC;" vertex="1" parent="sY9tv89bA_Qjg63RHlXv-29">
          <mxGeometry x="26.842105263157894" y="274.75" width="107.36842105263158" height="52.5" as="geometry" />
        </mxCell>
        <mxCell id="sY9tv89bA_Qjg63RHlXv-24" style="edgeStyle=orthogonalEdgeStyle;rounded=0;orthogonalLoop=1;jettySize=auto;html=1;exitX=0.5;exitY=1;exitDx=0;exitDy=0;" edge="1" parent="sY9tv89bA_Qjg63RHlXv-29" source="sY9tv89bA_Qjg63RHlXv-25" target="sY9tv89bA_Qjg63RHlXv-21">
          <mxGeometry relative="1" as="geometry" />
        </mxCell>
        <mxCell id="sY9tv89bA_Qjg63RHlXv-25" value="&lt;b&gt;Find Best Epoch&lt;br&gt;&lt;/b&gt;" style="rounded=0;whiteSpace=wrap;html=1;strokeColor=#FFFFCC;fillColor=#CCCCCC;" vertex="1" parent="sY9tv89bA_Qjg63RHlXv-29">
          <mxGeometry x="26.842105263157894" y="201.25" width="107.36842105263158" height="52.5" as="geometry" />
        </mxCell>
        <mxCell id="sY9tv89bA_Qjg63RHlXv-19" style="edgeStyle=orthogonalEdgeStyle;rounded=0;orthogonalLoop=1;jettySize=auto;html=1;exitX=0.5;exitY=1;exitDx=0;exitDy=0;entryX=0.5;entryY=0;entryDx=0;entryDy=0;" edge="1" parent="sY9tv89bA_Qjg63RHlXv-29" source="sY9tv89bA_Qjg63RHlXv-20" target="sY9tv89bA_Qjg63RHlXv-25">
          <mxGeometry relative="1" as="geometry" />
        </mxCell>
        <mxCell id="sY9tv89bA_Qjg63RHlXv-26" value="&lt;b&gt;Retrained model&lt;/b&gt;" style="rounded=0;whiteSpace=wrap;html=1;fillColor=#FFFFCC;" vertex="1" parent="sY9tv89bA_Qjg63RHlXv-29">
          <mxGeometry x="26.842105263157894" y="341.25" width="107.36842105263158" height="52.5" as="geometry" />
        </mxCell>
        <mxCell id="sY9tv89bA_Qjg63RHlXv-27" style="edgeStyle=orthogonalEdgeStyle;rounded=0;orthogonalLoop=1;jettySize=auto;html=1;exitX=0.5;exitY=1;exitDx=0;exitDy=0;entryX=0.5;entryY=0;entryDx=0;entryDy=0;" edge="1" parent="sY9tv89bA_Qjg63RHlXv-29" source="sY9tv89bA_Qjg63RHlXv-21" target="sY9tv89bA_Qjg63RHlXv-26">
          <mxGeometry relative="1" as="geometry" />
        </mxCell>
        <mxCell id="sY9tv89bA_Qjg63RHlXv-32" value="&lt;font style=&quot;font-size: 14px;&quot;&gt;&lt;b&gt;Padding / Resizing&lt;/b&gt;&lt;font&gt;&lt;b&gt;&lt;br&gt;&lt;/b&gt;&lt;/font&gt;&lt;/font&gt;" style="text;html=1;strokeColor=none;fillColor=none;align=center;verticalAlign=middle;whiteSpace=wrap;rounded=0;" vertex="1" parent="sY9tv89bA_Qjg63RHlXv-29">
          <mxGeometry x="17.17" y="34.75" width="133.16" height="30" as="geometry" />
        </mxCell>
        <mxCell id="sY9tv89bA_Qjg63RHlXv-30" style="edgeStyle=orthogonalEdgeStyle;rounded=0;orthogonalLoop=1;jettySize=auto;html=1;exitX=0.5;exitY=1;exitDx=0;exitDy=0;entryX=1;entryY=0.5;entryDx=0;entryDy=0;" edge="1" parent="1" source="sY9tv89bA_Qjg63RHlXv-28" target="NuPrWbKFmI7vso4aYNDR-13">
          <mxGeometry relative="1" as="geometry" />
        </mxCell>
        <mxCell id="sY9tv89bA_Qjg63RHlXv-31" value="&lt;b&gt;&lt;font style=&quot;font-size: 14px;&quot;&gt;KFold Cross Validation&lt;/font&gt;&lt;/b&gt;" style="text;html=1;strokeColor=none;fillColor=none;align=center;verticalAlign=middle;whiteSpace=wrap;rounded=0;" vertex="1" parent="1">
          <mxGeometry x="1050" y="220" width="170" height="30" as="geometry" />
        </mxCell>
      </root>
    </mxGraphModel>
  </diagram>
</mxfile>
